<svg width="32" height="32" viewBox="0 0 32 32" fill="none" xmlns="http://www.w3.org/2000/svg">
<path fill-rule="evenodd" clip-rule="evenodd" d="M22.2346 3.50406C18.0397 2.56635 13.6895 2.56635 9.49464 3.50406L9.04264 3.60406C7.86235 3.86717 6.77823 4.4527 5.91099 5.29545C5.04376 6.1382 4.42744 7.20511 4.13064 8.37739C3.06916 12.5677 3.06916 16.9565 4.13064 21.1467C4.41372 22.2647 4.98768 23.2878 5.79421 24.1122C6.60074 24.9365 7.6111 25.5327 8.72264 25.8401L9.34264 29.5414C9.36244 29.6589 9.41337 29.769 9.49016 29.8602C9.56694 29.9513 9.66675 30.0202 9.77921 30.0597C9.89167 30.0992 10.0127 30.1078 10.1296 30.0847C10.2465 30.0615 10.3551 30.0074 10.444 29.9281L14.0853 26.6707C16.8187 26.8357 19.5618 26.6172 22.2346 26.0214L22.688 25.9214C23.8683 25.6583 24.9524 25.0728 25.8196 24.23C26.6869 23.3873 27.3032 22.3203 27.6 21.1481C28.6615 16.9578 28.6615 12.569 27.6 8.37873C27.3031 7.20627 26.6866 6.13925 25.8191 5.29648C24.9516 4.45371 23.8672 3.86828 22.6866 3.60539L22.2346 3.50406ZM10.62 8.26939C10.3722 8.23311 10.1194 8.283 9.90398 8.41073H9.88531C9.38531 8.70406 8.93464 9.07339 8.55064 9.50806C8.23064 9.87739 8.05731 10.2507 8.01198 10.6107C7.98531 10.8241 8.00398 11.0401 8.06664 11.2441L8.09064 11.2574C8.45064 12.3147 8.91998 13.3321 9.49331 14.2894C10.2329 15.6338 11.1426 16.8774 12.2 17.9894L12.232 18.0347L12.2826 18.0721L12.3133 18.1081L12.3506 18.1401C13.4666 19.2005 14.7131 20.1145 16.06 20.8601C17.6 21.6987 18.5346 22.0947 19.096 22.2601V22.2681C19.26 22.3187 19.4093 22.3414 19.56 22.3414C20.0383 22.3071 20.4911 22.1126 20.8453 21.7894C21.2786 21.4054 21.6453 20.9534 21.9306 20.4507V20.4414C22.1986 19.9347 22.108 19.4574 21.7213 19.1334C20.9453 18.454 20.1054 17.8512 19.2133 17.3334C18.616 17.0094 18.0093 17.2054 17.764 17.5334L17.24 18.1947C16.9706 18.5227 16.4826 18.4774 16.4826 18.4774L16.4693 18.4854C12.828 17.5561 11.856 13.8694 11.856 13.8694C11.856 13.8694 11.8106 13.3681 12.148 13.1121L12.804 12.5841C13.1186 12.3281 13.3373 11.7227 13 11.1254C12.4834 10.234 11.882 9.39451 11.204 8.61873C11.0557 8.43656 10.848 8.31242 10.6173 8.26806M16.772 6.66673C16.5952 6.66673 16.4256 6.73697 16.3006 6.86199C16.1756 6.98701 16.1053 7.15658 16.1053 7.33339C16.1053 7.5102 16.1756 7.67977 16.3006 7.8048C16.4256 7.92982 16.5952 8.00006 16.772 8.00006C18.4586 8.00006 19.8586 8.55073 20.9666 9.60673C21.536 10.1841 21.98 10.8681 22.2706 11.6174C22.5626 12.3681 22.696 13.1694 22.6613 13.9721C22.6576 14.0596 22.6712 14.147 22.7013 14.2293C22.7315 14.3116 22.7775 14.3872 22.8368 14.4517C22.9565 14.5819 23.1232 14.6593 23.3 14.6667C23.4768 14.6742 23.6493 14.611 23.7796 14.4913C23.9099 14.3715 23.9872 14.2049 23.9946 14.0281C24.0344 13.0408 23.8706 12.0559 23.5133 11.1347C23.1544 10.2088 22.6078 9.36721 21.908 8.66273L21.8946 8.64939C20.52 7.33606 18.78 6.66673 16.772 6.66673ZM16.7266 8.85873C16.5498 8.85873 16.3803 8.92897 16.2552 9.05399C16.1302 9.17901 16.06 9.34858 16.06 9.52539C16.06 9.70221 16.1302 9.87177 16.2552 9.9968C16.3803 10.1218 16.5498 10.1921 16.7266 10.1921H16.7493C17.9653 10.2787 18.8506 10.6841 19.4706 11.3494C20.1066 12.0347 20.436 12.8867 20.4106 13.9401C20.4066 14.1169 20.4729 14.2881 20.5951 14.416C20.7172 14.5439 20.8852 14.618 21.062 14.6221C21.2388 14.6261 21.41 14.5598 21.5379 14.4376C21.6658 14.3155 21.7399 14.1475 21.744 13.9707C21.776 12.5881 21.3306 11.3947 20.448 10.4427V10.4401C19.5453 9.47206 18.3066 8.96006 16.816 8.86006L16.7933 8.85739L16.7266 8.85873ZM16.7013 11.0921C16.6121 11.0842 16.5222 11.0944 16.437 11.122C16.3518 11.1496 16.2731 11.1942 16.2055 11.2529C16.1378 11.3117 16.0828 11.3834 16.0435 11.4639C16.0042 11.5444 15.9816 11.632 15.977 11.7215C15.9723 11.8109 15.9857 11.9004 16.0164 11.9845C16.0471 12.0687 16.0944 12.1458 16.1555 12.2112C16.2167 12.2767 16.2904 12.3291 16.3722 12.3655C16.4541 12.4018 16.5424 12.4213 16.632 12.4227C17.1893 12.4521 17.5453 12.6201 17.7693 12.8454C17.9946 13.0721 18.1626 13.4361 18.1933 14.0054C18.195 14.0949 18.2146 14.1831 18.2511 14.2648C18.2876 14.3465 18.3401 14.42 18.4056 14.481C18.4711 14.542 18.5482 14.5891 18.6324 14.6196C18.7165 14.6502 18.8059 14.6635 18.8952 14.6587C18.9846 14.654 19.0721 14.6313 19.1525 14.592C19.2329 14.5527 19.3045 14.4977 19.3632 14.4301C19.4219 14.3626 19.4664 14.2839 19.494 14.1988C19.5216 14.1137 19.5318 14.0239 19.524 13.9347C19.4813 13.1347 19.2306 12.4281 18.7173 11.9081C18.2013 11.3881 17.4986 11.1347 16.7013 11.0921Z" fill="#785AFA"/>
</svg>
