<svg width="100" height="100" viewBox="0 0 100 100" fill="none" xmlns="http://www.w3.org/2000/svg">
<mask id="path-1-inside-1_139_45" fill="white">
<path d="M0 16.1843C0 7.24595 7.24594 0 16.1843 0H67.5636C76.5019 0 83.7479 7.24595 83.7479 16.1843H0Z"/>
</mask>
<path d="M-2 16.1843C-2 6.14138 6.14138 -2 16.1843 -2H67.5636C77.6065 -2 85.7479 6.14138 85.7479 16.1843H81.7479C81.7479 8.35052 75.3974 2 67.5636 2H16.1843C8.35052 2 2 8.35052 2 16.1843H-2ZM83.7479 16.1843H0H83.7479ZM-2 16.1843C-2 6.14138 6.14138 -2 16.1843 -2V2C8.35052 2 2 8.35052 2 16.1843H-2ZM67.5636 -2C77.6065 -2 85.7479 6.14138 85.7479 16.1843H81.7479C81.7479 8.35052 75.3974 2 67.5636 2V-2Z" fill="white" mask="url(#path-1-inside-1_139_45)"/>
<mask id="path-3-inside-2_139_45" fill="white">
<path d="M83.748 25.6577H45.2373V89.2104H86.543C92.5017 89.2106 97.332 94.0417 97.332 100H0V16.1841H83.748V25.6577Z"/>
</mask>
<path d="M83.748 25.6577V27.6577H85.748V25.6577H83.748ZM45.2373 25.6577V23.6577H43.2373V25.6577H45.2373ZM45.2373 89.2104H43.2373V91.2104H45.2373V89.2104ZM86.543 89.2104L86.543 87.2104H86.543V89.2104ZM97.332 100V102H99.332V100H97.332ZM0 100H-2V102H0V100ZM0 16.1841V14.1841H-2V16.1841H0ZM83.748 16.1841H85.748V14.1841H83.748V16.1841ZM83.748 25.6577V23.6577H45.2373V25.6577V27.6577H83.748V25.6577ZM45.2373 25.6577H43.2373V89.2104H45.2373H47.2373V25.6577H45.2373ZM45.2373 89.2104V91.2104H86.543V89.2104V87.2104H45.2373V89.2104ZM86.543 89.2104L86.5429 91.2104C91.397 91.2106 95.332 95.1461 95.332 100H97.332H99.332C99.332 92.9373 93.6065 87.2106 86.543 87.2104L86.543 89.2104ZM97.332 100V98.0005H0V100V102H97.332V100ZM0 100H2V16.1841H0H-2V100H0ZM0 16.1841V18.1841H83.748V16.1841V14.1841H0V16.1841ZM83.748 16.1841H81.748V25.6577H83.748H85.748V16.1841H83.748Z" fill="white" mask="url(#path-3-inside-2_139_45)"/>
<mask id="path-5-inside-3_139_45" fill="white">
<path d="M65.02 33.1582H78.0768V43.4214H65.02V33.1582Z"/>
</mask>
<path d="M78.0768 43.4214V45.4214H80.0768V43.4214H78.0768ZM65.02 43.4214H63.02V45.4214H65.02V43.4214ZM78.0768 33.1582H76.0768V43.4214H78.0768H80.0768V33.1582H78.0768ZM78.0768 43.4214V41.4214H65.02V43.4214V45.4214H78.0768V43.4214ZM65.02 43.4214H67.02V33.1582H65.02H63.02V43.4214H65.02Z" fill="white" mask="url(#path-5-inside-3_139_45)"/>
<mask id="path-7-inside-4_139_45" fill="white">
<path d="M58.5576 25.6582H83.7479V33.1582H58.5576V25.6582Z"/>
</mask>
<path d="M83.7479 33.1582V35.1582H85.7479V33.1582H83.7479ZM58.5576 33.1582H56.5576V35.1582H58.5576V33.1582ZM83.7479 25.6582H81.7479V33.1582H83.7479H85.7479V25.6582H83.7479ZM83.7479 33.1582V31.1582H58.5576V33.1582V35.1582H83.7479V33.1582ZM58.5576 33.1582H60.5576V25.6582H58.5576H56.5576V33.1582H58.5576Z" fill="white" mask="url(#path-7-inside-4_139_45)"/>
<line x1="8.30884" y1="31.1582" x2="25.0584" y2="31.1582" stroke="#1283CF" stroke-width="4"/>
<line x1="8.30884" y1="41.4214" x2="25.0584" y2="41.4214" stroke="#1283CF" stroke-width="4"/>
<line x1="8.30884" y1="51.6843" x2="25.0584" y2="51.6843" stroke="#1283CF" stroke-width="4"/>
<line x1="8.30884" y1="61.9475" x2="25.0584" y2="61.9475" stroke="#1283CF" stroke-width="4"/>
<line x1="8.30884" y1="72.2107" x2="25.0584" y2="72.2107" stroke="#1283CF" stroke-width="4"/>
<line x1="8.30884" y1="82.4741" x2="25.0584" y2="82.4741" stroke="#1283CF" stroke-width="4"/>
<mask id="path-15-inside-5_139_45" fill="white">
<path d="M90.7375 62.9607C90.7375 69.2247 88.6679 75.2325 84.9826 79.6619C83.8116 81.0693 82.5066 82.2792 81.1057 83.2771C81.8792 85.0975 82.297 87.1276 82.2971 89.2107H60.6682C60.6682 87.2874 61.0207 85.4078 61.6838 83.698C60.0482 82.6267 58.5325 81.2734 57.1916 79.6619C53.5063 75.2325 51.4357 69.2247 51.4357 62.9607H90.7375Z"/>
</mask>
<path d="M90.7375 62.9607L92.7375 62.9607V60.9607H90.7375V62.9607ZM84.9826 79.6619L86.52 80.941L86.52 80.941L84.9826 79.6619ZM81.1057 83.2771L79.9453 81.6481L78.6365 82.5804L79.2649 84.0593L81.1057 83.2771ZM82.2971 89.2107V91.2107H84.2971L84.2971 89.2107L82.2971 89.2107ZM60.6682 89.2107L58.6682 89.2107L58.6681 91.2107H60.6682V89.2107ZM61.6838 83.698L63.5485 84.4211L64.1337 82.9119L62.7796 82.0249L61.6838 83.698ZM57.1916 79.6619L55.6542 80.941L55.6542 80.9411L57.1916 79.6619ZM51.4357 62.9607V60.9607H49.4357L49.4357 62.9607L51.4357 62.9607ZM90.7375 62.9607L88.7375 62.9607C88.7375 68.8013 86.8046 74.345 83.4452 78.3827L84.9826 79.6619L86.52 80.941C90.5312 76.1201 92.7375 69.6481 92.7375 62.9607L90.7375 62.9607ZM84.9826 79.6619L83.4452 78.3827C82.381 79.6617 81.202 80.753 79.9453 81.6481L81.1057 83.2771L82.266 84.9061C83.8112 83.8054 85.2421 82.477 86.52 80.941L84.9826 79.6619ZM81.1057 83.2771L79.2649 84.0593C79.9318 85.6285 80.297 87.3922 80.2971 89.2107L82.2971 89.2107L84.2971 89.2107C84.297 86.863 83.8266 84.5665 82.9464 82.4949L81.1057 83.2771ZM82.2971 89.2107V87.2107H60.6682V89.2107V91.2107H82.2971V89.2107ZM60.6682 89.2107L62.6682 89.2107C62.6682 87.5294 62.9768 85.8954 63.5485 84.4211L61.6838 83.698L59.8191 82.9749C59.0647 84.9202 58.6682 87.0454 58.6682 89.2107L60.6682 89.2107ZM61.6838 83.698L62.7796 82.0249C61.3163 81.0665 59.948 79.8477 58.729 78.3827L57.1916 79.6619L55.6542 80.9411C57.117 82.6992 58.7801 84.1869 60.5879 85.3711L61.6838 83.698ZM57.1916 79.6619L58.729 78.3827C55.3694 74.3448 53.4357 68.801 53.4357 62.9607L51.4357 62.9607L49.4357 62.9607C49.4357 69.6484 51.6432 76.1203 55.6542 80.941L57.1916 79.6619ZM51.4357 62.9607V64.9607H90.7375V62.9607V60.9607H51.4357V62.9607Z" fill="#1283CF" mask="url(#path-15-inside-5_139_45)"/>
<path d="M89.1348 68.5804C90.3025 68.4071 91.4054 68.3606 92.3984 68.4361L92.8893 68.4849C94.0172 68.6224 94.9181 68.9201 95.5773 69.3193L95.8447 69.4961C96.4188 69.9114 96.7531 70.4047 96.8888 70.9507L96.9356 71.1882C97.0179 71.7681 96.902 72.4725 96.5131 73.2737L96.3298 73.6228C95.8619 74.4498 95.1409 75.3125 94.1879 76.1515L93.7651 76.51C92.7492 77.3386 91.5464 78.1016 90.2254 78.752L89.6521 79.0235C88.299 79.6406 86.8779 80.1205 85.4723 80.4364L84.8711 80.5615C84.0549 80.7182 83.2633 80.8129 82.5118 80.8515L82.6665 80.6759C85.7165 77.1858 87.9252 73.0483 89.1348 68.5804Z" stroke="#1283CF" stroke-width="2"/>
</svg>
