<svg width="30" height="34" viewBox="0 0 30 34" fill="none" xmlns="http://www.w3.org/2000/svg">
<path fill-rule="evenodd" clip-rule="evenodd" d="M24.2555 23.51C24.6206 23.3274 25.0399 23.2851 25.434 23.3911C25.8281 23.4971 26.1697 23.744 26.3939 24.085L26.4905 24.255L29.8239 30.9217C29.9428 31.1594 30.0032 31.4222 29.9999 31.688C29.9966 31.9538 29.9297 32.215 29.805 32.4497C29.6802 32.6844 29.501 32.8859 29.2825 33.0373C29.064 33.1887 28.8125 33.2856 28.5489 33.32L28.3339 33.3333H1.6672C1.40132 33.3334 1.13928 33.2699 0.902949 33.1481C0.666623 33.0262 0.462875 32.8496 0.308719 32.633C0.154563 32.4164 0.0544742 32.166 0.0168085 31.9028C-0.0208571 31.6396 0.00499421 31.3712 0.0922041 31.12L0.175537 30.92L3.50887 24.2533C3.6957 23.8672 4.02424 23.5679 4.42613 23.4178C4.82802 23.2677 5.2723 23.2784 5.66652 23.4476C6.06074 23.6168 6.37454 23.9315 6.54261 24.3262C6.71068 24.7209 6.72009 25.1652 6.56887 25.5667L6.49054 25.745L4.36387 30H25.6372L23.5105 25.745C23.3132 25.3498 23.2808 24.8924 23.4205 24.4733C23.5602 24.0542 23.8605 23.7078 24.2555 23.51ZM15.0005 0C18.0947 0 21.0622 1.22916 23.2501 3.41709C25.438 5.60501 26.6672 8.57248 26.6672 11.6667C26.6672 15.6367 24.5189 18.8617 22.2955 21.15C21.0674 22.3974 19.7173 23.5185 18.2655 24.4967L17.6439 24.9067L17.0905 25.255C17.0039 25.3067 16.9205 25.355 16.8422 25.405L16.4139 25.6517C15.5339 26.1517 14.4672 26.1517 13.5872 25.6517L13.1589 25.4033L12.6422 25.0883C12.5468 25.0283 12.4518 24.9678 12.3572 24.9067L11.7355 24.4967C10.2838 23.5185 8.9337 22.3974 7.70554 21.15C5.48221 18.8617 3.33387 15.6367 3.33387 11.6667C3.33387 8.57248 4.56304 5.60501 6.75096 3.41709C8.93888 1.22916 11.9063 0 15.0005 0ZM15.0005 3.33333C12.7904 3.33333 10.6708 4.21131 9.10798 5.77411C7.54518 7.33692 6.66721 9.45653 6.66721 11.6667C6.66721 14.3933 8.15054 16.825 10.0955 18.8267C11.2647 20.0091 12.5577 21.0624 13.9522 21.9683L14.5189 22.33C14.6939 22.4383 14.8555 22.535 15.0005 22.62L15.4839 22.33L16.0489 21.9683C17.4434 21.0624 18.7364 20.0091 19.9055 18.8267C21.8505 16.8267 23.3339 14.3933 23.3339 11.6667C23.3339 9.45653 22.4559 7.33692 20.8931 5.77411C19.3303 4.21131 17.2107 3.33333 15.0005 3.33333ZM15.0005 6.66667C16.3266 6.66667 17.5984 7.19345 18.5361 8.13113C19.4738 9.06882 20.0005 10.3406 20.0005 11.6667C20.0005 12.9928 19.4738 14.2645 18.5361 15.2022C17.5984 16.1399 16.3266 16.6667 15.0005 16.6667C13.6745 16.6667 12.4027 16.1399 11.465 15.2022C10.5273 14.2645 10.0005 12.9928 10.0005 11.6667C10.0005 10.3406 10.5273 9.06882 11.465 8.13113C12.4027 7.19345 13.6745 6.66667 15.0005 6.66667ZM15.0005 10C14.5585 10 14.1346 10.1756 13.822 10.4882C13.5095 10.8007 13.3339 11.2246 13.3339 11.6667C13.3339 12.1087 13.5095 12.5326 13.822 12.8452C14.1346 13.1577 14.5585 13.3333 15.0005 13.3333C15.4426 13.3333 15.8665 13.1577 16.1791 12.8452C16.4916 12.5326 16.6672 12.1087 16.6672 11.6667C16.6672 11.2246 16.4916 10.8007 16.1791 10.4882C15.8665 10.1756 15.4426 10 15.0005 10Z" fill="#283044"/>
</svg>
