<svg width="32" height="32" viewBox="0 0 32 32" fill="none" xmlns="http://www.w3.org/2000/svg">
<g clip-path="url(#clip0_23_9848)">
<path d="M0.681585 15.8086C0.680841 18.4972 1.38335 21.1224 2.71917 23.4363L0.553833 31.3423L8.64462 29.2209C10.8824 30.4391 13.3897 31.0775 15.9376 31.0776H15.9443C24.3555 31.0776 31.2024 24.2332 31.206 15.8206C31.2076 11.7441 29.6215 7.91076 26.7398 5.02679C23.8585 2.14307 20.0266 0.554107 15.9437 0.552246C7.53157 0.552246 0.685182 7.39628 0.681709 15.8086" fill="url(#paint0_linear_23_9848)"/>
<path d="M0.136742 15.8035C0.135873 18.5889 0.863563 21.308 2.247 23.7048L0.00402832 31.8942L8.38493 29.6967C10.6941 30.9558 13.2941 31.6196 15.9397 31.6206H15.9465C24.6594 31.6206 31.7522 24.53 31.756 15.8162C31.7575 11.5932 30.1143 7.62208 27.1296 4.63479C24.1446 1.64788 20.1756 0.00173643 15.9465 0C7.23206 0 0.140214 7.08961 0.136742 15.8035ZM5.12787 23.292L4.81494 22.7953C3.49947 20.7036 2.80514 18.2865 2.80614 15.8045C2.80887 8.56174 8.70332 2.66915 15.9514 2.66915C19.4615 2.67064 22.7602 4.03895 25.2414 6.52155C27.7224 9.0044 29.0876 12.3049 29.0867 15.8152C29.0835 23.058 23.1889 28.9513 15.9465 28.9513H15.9413C13.5831 28.9501 11.2703 28.3168 9.25327 27.12L8.77327 26.8353L3.79987 28.1393L5.12787 23.292Z" fill="url(#paint1_linear_23_9848)"/>
<path d="M11.9951 9.19662C11.6992 8.53888 11.3877 8.52561 11.1063 8.51407C10.8759 8.50415 10.6124 8.5049 10.3492 8.5049C10.0858 8.5049 9.65777 8.604 9.29597 8.99904C8.9338 9.39445 7.91327 10.35 7.91327 12.2934C7.91327 14.2369 9.32884 16.1152 9.52617 16.379C9.72375 16.6423 12.2589 20.7582 16.2741 22.3415C19.611 23.6574 20.2901 23.3957 21.0143 23.3297C21.7386 23.264 23.3515 22.3744 23.6806 21.452C24.0099 20.5297 24.0099 19.7391 23.9112 19.5739C23.8124 19.4093 23.549 19.3105 23.1539 19.113C22.7589 18.9156 20.8167 17.9598 20.4547 17.8279C20.0925 17.6962 19.8292 17.6305 19.5657 18.026C19.3023 18.4209 18.5458 19.3105 18.3153 19.5739C18.0849 19.838 17.8544 19.8708 17.4594 19.6733C17.0642 19.4751 15.792 19.0584 14.2826 17.7128C13.1083 16.6658 12.3155 15.3727 12.0851 14.9772C11.8546 14.5823 12.0604 14.3682 12.2584 14.1714C12.4359 13.9944 12.6536 13.7101 12.8513 13.4795C13.0483 13.2488 13.114 13.0842 13.2457 12.8208C13.3776 12.5571 13.3116 12.3264 13.213 12.1288C13.114 11.9313 12.3464 9.97764 11.9951 9.19662Z" fill="white"/>
</g>
<defs>
<linearGradient id="paint0_linear_23_9848" x1="1533.16" y1="3079.56" x2="1533.16" y2="0.552246" gradientUnits="userSpaceOnUse">
<stop stop-color="#1FAF38"/>
<stop offset="1" stop-color="#60D669"/>
</linearGradient>
<linearGradient id="paint1_linear_23_9848" x1="1587.6" y1="3189.42" x2="1587.6" y2="0" gradientUnits="userSpaceOnUse">
<stop stop-color="#F9F9F9"/>
<stop offset="1" stop-color="white"/>
</linearGradient>
<clipPath id="clip0_23_9848">
<rect width="31.76" height="32" fill="white"/>
</clipPath>
</defs>
</svg>
