<svg width="68" height="101" viewBox="0 0 68 101" fill="none" xmlns="http://www.w3.org/2000/svg">
<path d="M34 100H17.5484M34 100H52.0141M34 100H15.986M41.1689 61.3984L34 68.5672L26.8312 61.3984C15.1758 60.7935 9.72715 65.2786 1.92029 78.2156C1.37713 79.1157 1.0968 80.1507 1.0968 81.202V94.1178C1.0968 97.3664 3.73033 100 6.97894 100H15.986M41.1689 61.3984C52.8242 60.7935 58.2729 65.2786 66.0797 78.2156C66.6229 79.1157 66.9032 80.1507 66.9032 81.202V94.1178C66.9032 97.3664 64.2697 100 61.0211 100H52.0141M41.1689 61.3984V48.5308M26.8312 61.3951V48.5276M52.0141 100V80.3279M15.986 100V80.3279" stroke="white" stroke-width="2"/>
<path d="M27.6317 1H41.1043C49.1153 1.00023 55.6092 7.4948 55.6092 15.5059V25.9238C55.609 38.1281 47.1386 48.6974 35.2274 51.3555C34.6615 51.4817 34.0744 51.4817 33.5086 51.3555C21.5972 48.6975 13.126 38.1282 13.1258 25.9238V15.5059C13.1258 7.49466 19.6204 1 27.6317 1Z" fill="#283044" stroke="#1283CF" stroke-width="2"/>
<path d="M14.5154 34.7415C17.7302 31.3857 19.8093 27.7012 20.8584 17.8084C20.8997 17.4183 21.3528 17.2197 21.6664 17.4554C24.9804 19.947 27.7829 21.7184 33.8841 24.9157C34.2974 25.1323 34.759 24.7116 34.5906 24.2765C33.3209 20.9949 33.0597 19.2117 32.9345 16.808C32.9151 16.4351 33.3012 16.1777 33.6413 16.3318C38.6469 18.5999 41.9265 19.716 48.5871 20.016C48.8566 20.0281 49.0716 20.2543 49.0718 20.5241C49.0798 29.0235 50.6134 32.1933 53.117 37.1311" stroke="white" stroke-width="2"/>
<path d="M27.6317 1H41.1043C49.1153 1.00023 55.6092 7.49479 55.6092 15.5059V25.9238C55.609 37.9374 47.4011 48.3663 35.783 51.2246L35.2274 51.3555C34.7322 51.466 34.2207 51.4793 33.7215 51.3965L33.5086 51.3555C21.5972 48.6975 13.126 38.1282 13.1258 25.9238V15.5059C13.1258 7.49466 19.6204 1 27.6317 1Z" stroke="#1283CF" stroke-width="2"/>
</svg>
