<svg width="82" height="100" viewBox="0 0 82 100" fill="none" xmlns="http://www.w3.org/2000/svg">
<path d="M8.76526 70.696L12.1527 73.9393C15.5031 77.1472 19.9625 78.9378 24.601 78.9378H35.3367C36.4413 78.9378 37.3367 79.8332 37.3367 80.9378V83.3334" stroke="#1283CF" stroke-width="2"/>
<path d="M11.6958 64.1025L16.215 68.0381C19.492 70.8918 23.6907 72.4637 28.0361 72.4637H32.145C38.4516 72.4637 43.564 77.5762 43.564 83.8827V83.8827" stroke="#1283CF" stroke-width="2"/>
<path d="M44.8459 16.6663L44.9183 17.1027C45.2382 19.0331 46.9077 20.4487 48.8645 20.4487H55.5616C63.2488 20.4487 70.5089 23.9843 75.2489 30.0362V30.0362" stroke="#1283CF" stroke-width="2"/>
<path d="M38.0697 15.7512V15.7512C38.0697 22.0885 43.2071 27.2259 49.5444 27.2259H57.7225C61.1306 27.2259 64.3238 28.8909 66.2749 31.6852V31.6852" stroke="#1283CF" stroke-width="2"/>
<path d="M15.1759 59.1573L15.4372 58.9047C18.7937 55.6596 23.2798 53.8456 27.9486 53.8456L59.9045 53.8456C63.3025 53.8456 66.5845 52.6097 69.1385 50.3685L74.1504 45.9705" stroke="#1283CF" stroke-width="2"/>
<path d="M7.48348 55.3111L12.7434 51.0641C15.9452 48.4789 19.9361 47.0688 24.0513 47.0688L57.7818 47.0688C60.6559 47.0688 63.4604 46.1842 65.8144 44.5352L66.6413 43.9559" stroke="#1283CF" stroke-width="2"/>
<path d="M40.2672 82.6851C44.7724 82.6851 48.4253 86.3372 48.4254 90.8423C48.4254 95.3475 44.7725 99.0005 40.2672 99.0005C35.7621 99.0003 32.11 95.3474 32.11 90.8423C32.1101 86.3373 35.7622 82.6852 40.2672 82.6851Z" fill="#283044" stroke="white" stroke-width="2"/>
<path d="M9.49792 54.8462C14.0031 54.8462 17.656 58.4983 17.6561 63.0034C17.6561 67.5087 14.0032 71.1616 9.49792 71.1616C4.99278 71.1615 1.3407 67.5086 1.3407 63.0034C1.34083 58.4984 4.99286 54.8464 9.49792 54.8462Z" fill="#283044" stroke="white" stroke-width="2"/>
<path d="M58.9022 59.5617V60.3014C58.9022 60.8537 59.3499 61.3014 59.9022 61.3014H65.2239C65.7923 61.3014 66.3489 61.1399 66.8291 60.8358L75.5031 55.3423C75.9774 55.0419 76.1115 54.4099 75.8001 53.9428L75.5298 53.5373C75.2326 53.0915 74.6368 52.9591 74.1788 53.2372L66.1266 58.126C65.6573 58.411 65.1187 58.5617 64.5697 58.5617H59.9022C59.3499 58.5617 58.9022 59.0094 58.9022 59.5617Z" fill="#1283CF"/>
<path d="M41.7322 1C46.2374 1 49.8902 4.6521 49.8904 9.15723C49.8904 13.6625 46.2375 17.3154 41.7322 17.3154C37.227 17.3153 33.575 13.6624 33.575 9.15723C33.5751 4.6522 37.2271 1.00016 41.7322 1Z" fill="#283044" stroke="white" stroke-width="2"/>
<path d="M72.5015 29.571C77.0067 29.571 80.6595 33.2231 80.6597 37.7283C80.6597 42.2335 77.0067 45.8865 72.5015 45.8865C67.9963 45.8863 64.3442 42.2334 64.3442 37.7283C64.3444 33.2232 67.9964 29.5712 72.5015 29.571Z" fill="#283044" stroke="white" stroke-width="2"/>
<rect x="38.4359" y="30.769" width="2.56411" height="2.56409" rx="1" fill="#1283CF"/>
<rect x="45.7618" y="58.9739" width="2.56411" height="2.56409" rx="1" fill="#1283CF"/>
<rect x="51.9891" y="58.9739" width="2.56411" height="2.56409" rx="1" fill="#1283CF"/>
<rect x="8.76526" y="80.2192" width="2.56411" height="2.56409" rx="1" fill="#1283CF"/>
<rect x="14.9926" y="82.7837" width="2.56411" height="2.56409" rx="1" fill="#1283CF"/>
<rect x="44.6632" y="32.2339" width="2.56411" height="2.56409" rx="1" fill="#1283CF"/>
<rect x="51.9891" y="32.2339" width="7.32602" height="2.56409" rx="1" fill="#1283CF"/>
<rect x="21.9523" y="83.5161" width="7.32602" height="2.56409" rx="1" fill="#1283CF"/>
</svg>
