<svg width="109" height="79" viewBox="0 0 109 79" fill="none" xmlns="http://www.w3.org/2000/svg">
<path d="M108.5 2.54219C105.295 1.39817 103.982 0.360154 100.884 1.13847C91.8805 3.40063 80.6461 9.4396 73.3756 14.5816C69.9267 17.0209 57.4817 26.2336 48.6247 36.5887C34.461 53.1479 38.5377 50.1083 32.829 56.3622C32.4906 56.2962 32.2886 56.3125 32.1712 56.2272C23.3668 49.8269 19.9876 47.3787 7.18911 39.1974C2.88042 36.443 -0.749374 42.3601 0.910638 45.821C5.89753 56.2181 22.7539 69.7946 31.9718 77.0295C34.4042 78.9387 39.8558 79.2203 42.1885 74.7864C61.8847 37.3483 93.3331 13.1264 96.6545 9.62151C62.4189 26.4829 93.027 8.14491 108.5 2.54219Z" fill="#048D2A"/>
</svg>
